<svg width="14" height="12" viewBox="0 0 14 12" fill="none" xmlns="http://www.w3.org/2000/svg">
<path d="M0.333374 1.00002C0.333374 0.539783 0.70647 0.166687 1.16671 0.166687H12.8334C13.2936 0.166687 13.6667 0.539783 13.6667 1.00002C13.6667 1.46026 13.2936 1.83335 12.8334 1.83335H1.16671C0.70647 1.83335 0.333374 1.46026 0.333374 1.00002Z" fill="#334155"/>
<path d="M2.00004 6.00002C2.00004 5.53978 2.37314 5.16669 2.83337 5.16669H11.1667C11.6269 5.16669 12 5.53978 12 6.00002C12 6.46026 11.6269 6.83335 11.1667 6.83335H2.83337C2.37314 6.83335 2.00004 6.46026 2.00004 6.00002Z" fill="#334155"/>
<path d="M4.50004 10.1667C4.0398 10.1667 3.66671 10.5398 3.66671 11C3.66671 11.4603 4.0398 11.8334 4.50004 11.8334H9.50004C9.96028 11.8334 10.3334 11.4603 10.3334 11C10.3334 10.5398 9.96028 10.1667 9.50004 10.1667H4.50004Z" fill="#334155"/>
</svg>
